<svg xmlns="http://www.w3.org/2000/svg" width="19.5" height="19.5" viewBox="0 0 19.5 19.5">
  <path id="md_globe" data-name="md globe" d="M2.859,2.859A9.392,9.392,0,0,1,9.75,0a9.392,9.392,0,0,1,6.891,2.859A9.392,9.392,0,0,1,19.5,9.75a9.392,9.392,0,0,1-2.859,6.891A9.392,9.392,0,0,1,9.75,19.5a9.392,9.392,0,0,1-6.891-2.859A9.392,9.392,0,0,1,0,9.75,9.392,9.392,0,0,1,2.859,2.859ZM8.719,18.047l.258-.516.258-.516a.879.879,0,0,0,.094-.4.521.521,0,0,0-.234-.4q-.75-.656-1.078-.984a2.139,2.139,0,0,1-.281-.539q-.188-.445-.141-.539a3.936,3.936,0,0,0,.375-1.125q.141-.563-.609-1.031a4.267,4.267,0,0,1-.656-.469q-.328-.281-.727-.609t-.633-.516Q4.5,9.8,4.406,9.516,3.984,8.3,3.938,8.2a2.954,2.954,0,0,1-.516-1.289,4.437,4.437,0,0,1,.047-1.43q0-.328-.094-1.172A7.973,7.973,0,0,0,1.406,9.75a8.044,8.044,0,0,0,2.438,5.906A8.222,8.222,0,0,0,8.719,18.047Zm6.938-2.391a8.228,8.228,0,0,0,2.2-3.844l-.891-.094a3.894,3.894,0,0,1-1.078-2.109q-.047-.422-.047-1.312a7.416,7.416,0,0,0-.094-1.359,3.658,3.658,0,0,0-.633-1.172,6.571,6.571,0,0,1-.633-.984q-.141-.328-.445-.984t-.492-.984a.537.537,0,0,1,.164.047.5.5,0,0,1,.164.094,3.95,3.95,0,0,1,.656-.094A7.8,7.8,0,0,0,10.969,1.5v.375l.188.422-.656.609-.422-.141L9.609,2.3l-.469-.562L8.484,1.5a8.738,8.738,0,0,0-2.109.609v.328a1.814,1.814,0,0,1,.516-.187,2.906,2.906,0,0,0,.563-.187q.094-.047.75.422-.047.047-.516.445a1.991,1.991,0,0,0-.516.539q0,.047.164.211t.164.258q0,.141-.023.4t-.023.4A12.152,12.152,0,0,1,8.484,3.75a1.3,1.3,0,0,1,1.031.4,2,2,0,0,1,.7.82q.047.141-.187.4a7.432,7.432,0,0,1-.75.68q-.516.422-.609.516a3.015,3.015,0,0,1-.422.3,1.81,1.81,0,0,0-.469.4.408.408,0,0,0-.047.422q.469.938.234,1.125a.186.186,0,0,1-.234.023.583.583,0,0,1-.211-.164q-.07-.094-.187-.234T7.172,8.25q-.281-.328-1.781-.328a2.374,2.374,0,0,0,.7,2.016q1.922,1.406,2.2,1.547a2.149,2.149,0,0,0,1.125,0q.844-.141,1.078.047a15.126,15.126,0,0,0,2.2,1.359,2.668,2.668,0,0,1,.938.633q.516.492.281.82a10.262,10.262,0,0,0-.656,1.078,2.785,2.785,0,0,1-.937,1.172,3.264,3.264,0,0,0-.984,1.359A8.306,8.306,0,0,0,15.656,15.656ZM19.5,18.75"/>
</svg>
